<?xml version="1.0" encoding="UTF-8" standalone="no"?>
<svg width="651px" height="507px" viewBox="0 0 651 507" version="1.1" xmlns="http://www.w3.org/2000/svg" xmlns:xlink="http://www.w3.org/1999/xlink">
    <!-- Generator: Sketch 41.2 (35397) - http://www.bohemiancoding.com/sketch -->
    <title>Group</title>
    <desc>Created with Sketch.</desc>
    <defs>
        <rect id="path-1" x="0" y="0" width="230" height="230" rx="4"></rect>
        <mask id="mask-2" maskContentUnits="userSpaceOnUse" maskUnits="objectBoundingBox" x="0" y="0" width="230" height="230" fill="white">
            <use xlink:href="#path-1"></use>
        </mask>
        <path d="M1.21848398e-15,4.00281647 C1.35743656e-15,1.79212198 1.79568082,0 4.0065556,0 L55.9934444,0 C58.206204,0 60,1.79793835 60,4.00281647 L60,20.9971835 C60,23.207878 58.2043192,25 55.9934444,25 L4.0065556,25 C1.79379604,25 1.17208698e-17,23.2020617 1.50307859e-16,20.9971835 L1.21848398e-15,4.00281647 Z" id="path-3"></path>
        <mask id="mask-4" maskContentUnits="userSpaceOnUse" maskUnits="objectBoundingBox" x="0" y="0" width="60" height="25" fill="white">
            <use xlink:href="#path-3"></use>
        </mask>
        <rect id="path-5" x="0" y="0" width="230" height="93" rx="4"></rect>
        <mask id="mask-6" maskContentUnits="userSpaceOnUse" maskUnits="objectBoundingBox" x="0" y="0" width="230" height="93" fill="white">
            <use xlink:href="#path-5"></use>
        </mask>
        <rect id="path-7" x="0" y="0" width="230" height="93" rx="4"></rect>
        <mask id="mask-8" maskContentUnits="userSpaceOnUse" maskUnits="objectBoundingBox" x="0" y="0" width="230" height="93" fill="white">
            <use xlink:href="#path-7"></use>
        </mask>
        <path d="M4.77079699e-15,4.00269121 C4.80170575e-15,1.7920659 1.79371471,0 4.00201422,0 L192.997986,0 C195.208237,0 197,1.79016357 197,4.00269121 L197,364.997309 C197,367.207934 195.206285,369 192.997986,369 L4.00201422,369 C1.7917628,369 -3.07532476e-16,367.209836 -2.76597115e-16,364.997309 L4.77079699e-15,4.00269121 Z" id="path-9"></path>
        <mask id="mask-10" maskContentUnits="userSpaceOnUse" maskUnits="objectBoundingBox" x="0" y="0" width="197" height="369" fill="white">
            <use xlink:href="#path-9"></use>
        </mask>
        <path d="M4.60507252e-15,3.99609375 C4.72750838e-15,1.78911211 1.79371471,0 4.00201422,0 L192.997986,0 C195.208237,0 197,1.79532688 197,3.99609375 L197,89.0039062 C197,91.2108879 195.206285,93 192.997986,93 L4.00201422,93 C1.7917628,93 -2.32963735e-16,91.2046731 -1.10872651e-16,89.0039062 L4.60507252e-15,3.99609375 Z" id="path-11"></path>
        <mask id="mask-12" maskContentUnits="userSpaceOnUse" maskUnits="objectBoundingBox" x="0" y="0" width="197" height="93" fill="white">
            <use xlink:href="#path-11"></use>
        </mask>
    </defs>
    <g id="Page-1" stroke="none" stroke-width="1" fill="none" fill-rule="evenodd">
        <g id="Group">
            <path d="M439.5,138.5 L439.5,93.5" id="Line" stroke="#979797" stroke-linecap="square"></path>
            <path id="Line-decoration-1" d="M442.5,104.3 L439.5,93.5 L436.5,104.3" stroke="#979797" stroke-linecap="square"></path>
            <path d="M97.5,138.5 L97.5,93.5" id="Line" stroke="#979797" stroke-linecap="square"></path>
            <path id="Line-decoration-1" d="M100.5,104.3 L97.5,93.5 L94.5,104.3" stroke="#979797" stroke-linecap="square"></path>
            <polyline id="Path-2" stroke="#979797" stroke-linecap="square" stroke-dasharray="1,1,2" points="198 152.75 258.015625 152.477055 258.015625 33.25 324.687798 33.25"></polyline>
            <path id="Path-2-decoration-1" d="M313.887798,36.25 L324.687798,33.25 L313.887798,30.25" stroke="#979797" stroke-linecap="square" stroke-dasharray="1,1,2"></path>
            <g id="App-Design-源码仓库" transform="translate(324.000000, 138.000000)">
                <use id="Rectangle-26-Copy-23" stroke="#4A4A4A" mask="url(#mask-2)" stroke-width="2" fill="#FFFFFF" xlink:href="#path-1"></use>
                <text font-family="PingFangSC-Regular, PingFang SC" font-size="14" font-weight="normal" line-spacing="21" fill-opacity="0.75" fill="#000000">
                    <tspan x="47" y="30">App Design 源码仓库</tspan>
                </text>
                <g id="Examples" transform="translate(53.000000, 147.000000)">
                    <rect id="Rectangle-1-Copy-3" fill-opacity="0.85" fill="#404040" transform="translate(62.000000, 34.500000) scale(-1, 1) translate(-62.000000, -34.500000) " x="2.84217094e-14" y="0" width="124" height="69" rx="6"></rect>
                    <text id="Examples-组件使用-模板参考" font-family="PingFangSC-Regular, PingFang SC" font-size="12" font-weight="normal" line-spacing="18">
                        <tspan x="35.354" y="20.4091913" fill="#FFFFFF">Examples</tspan>
                        <tspan x="42" y="38.4091913" font-size="10" fill="#F6A623">组件使用</tspan>
                        <tspan x="42" y="56.4091913" font-size="10" fill="#F6A623">模板参考</tspan>
                    </text>
                </g>
                <g id="项目模板" transform="translate(53.000000, 85.000000)">
                    <rect id="Rectangle-1-Copy-3" fill-opacity="0.85" fill="#404040" transform="translate(62.000000, 27.000000) scale(-1, 1) translate(-62.000000, -27.000000) " x="2.84217094e-14" y="0" width="124" height="54" rx="6"></rect>
                    <text id="项目模板-运行框架" font-family="PingFangSC-Regular, PingFang SC" font-size="12" font-weight="normal" line-spacing="18">
                        <tspan x="38" y="20.8387097" fill="#FFFFFF">项目模板</tspan>
                        <tspan x="42" y="38.8387097" font-size="10" fill="#F6A623">运行框架</tspan>
                    </text>
                </g>
                <g id="组件库源码" transform="translate(53.000000, 42.000000)">
                    <rect id="Rectangle-1-Copy-3" fill-opacity="0.85" fill="#404040" transform="translate(62.000000, 17.000000) scale(-1, 1) translate(-62.000000, -17.000000) " x="2.84217094e-14" y="0" width="124" height="34" rx="6"></rect>
                    <text font-family="PingFangSC-Regular, PingFang SC" font-size="12" font-weight="normal" line-spacing="18" fill="#FFFFFF">
                        <tspan x="32" y="22">组件库源码</tspan>
                    </text>
                </g>
            </g>
            <g id="图裂" transform="translate(591.000000, 406.000000)">
                <g id="项目" transform="translate(0.000000, 27.000000)">
                    <use id="Rectangle-1-Copy-13" stroke="#A7E1C4" mask="url(#mask-4)" stroke-width="2" fill="#EBF8F2" xlink:href="#path-3"></use>
                    <text font-family="PingFangSC-Regular, PingFang SC" font-size="12" font-weight="normal" line-spacing="21" fill-opacity="0.75" fill="#000000">
                        <tspan x="18" y="15">项目</tspan>
                    </text>
                </g>
                <g id="产品" transform="translate(0.000000, 61.000000)">
                    <path d="M1.21848398e-15,4.00281647 C1.35743656e-15,1.79212198 1.79568082,0 4.0065556,0 L55.9934444,0 C58.206204,0 60,1.79793835 60,4.00281647 L60,20.9971835 C60,23.207878 58.2043192,25 55.9934444,25 L4.0065556,25 C1.79379604,25 1.17208698e-17,23.2020617 1.50307859e-16,20.9971835 L1.21848398e-15,4.00281647 Z" id="Rectangle-1-Copy-13" fill-opacity="0.85" fill="#404040"></path>
                    <text font-family="PingFangSC-Regular, PingFang SC" font-size="12" font-weight="normal" line-spacing="21" fill="#FFFFFF">
                        <tspan x="18" y="15">产品</tspan>
                    </text>
                </g>
                <text id="图例" font-family="PingFangSC-Regular, PingFang SC" font-size="14" font-weight="normal" line-spacing="21" fill-opacity="0.75" fill="#000000">
                    <tspan x="16" y="15">图例</tspan>
                </text>
            </g>
            <g id="在线文档" transform="translate(324.000000, 414.000000)">
                <use id="Rectangle-26-Copy-23" stroke="#4A4A4A" mask="url(#mask-6)" stroke-width="2" fill="#FFFFFF" xlink:href="#path-5"></use>
                <g id="url" transform="translate(32.000000, 42.000000)">
                    <rect id="Rectangle-1-Copy-3" fill-opacity="0.85" fill="#404040" transform="translate(85.500000, 17.000000) scale(-1, 1) translate(-85.500000, -17.000000) " x="-5.68434189e-14" y="0" width="171" height="34" rx="6"></rect>
                    <text id="http://27.154.58.94:" font-family="PingFangSC-Regular, PingFang SC" font-size="12" font-weight="normal" line-spacing="18" fill="#FFFFFF">
                        <tspan x="10" y="22">http://27.154.58.94:28001/</tspan>
                    </text>
                </g>
                <text font-family="PingFangSC-Regular, PingFang SC" font-size="14" font-weight="normal" line-spacing="21" fill-opacity="0.75" fill="#000000">
                    <tspan x="87" y="30">在线文档</tspan>
                </text>
            </g>
            <g id="npm-仓库" transform="translate(324.000000, 0.000000)">
                <use id="Rectangle-26-Copy-23" stroke="#4A4A4A" mask="url(#mask-8)" stroke-width="2" fill="#FFFFFF" xlink:href="#path-7"></use>
                <g id="App-Design-组件库" transform="translate(53.000000, 42.000000)">
                    <rect id="Rectangle-1-Copy-3" fill-opacity="0.85" fill="#404040" transform="translate(62.000000, 17.000000) scale(-1, 1) translate(-62.000000, -17.000000) " x="2.84217094e-14" y="0" width="124" height="34" rx="6"></rect>
                    <text font-family="PingFangSC-Regular, PingFang SC" font-size="12" font-weight="normal" line-spacing="18" fill="#FFFFFF">
                        <tspan x="8" y="22">App Design 组件库</tspan>
                    </text>
                </g>
                <text font-family="PingFangSC-Regular, PingFang SC" font-size="14" font-weight="normal" line-spacing="21" fill-opacity="0.75" fill="#000000">
                    <tspan x="85" y="30">npm 仓库</tspan>
                </text>
            </g>
            <g id="项目-app" transform="translate(0.000000, 138.000000)">
                <use id="Rectangle-1-Copy-13" stroke="#A7E1C4" mask="url(#mask-10)" stroke-width="2" fill="#EBF8F2" xlink:href="#path-9"></use>
                <text font-family="PingFangSC-Regular, PingFang SC" font-size="14" font-weight="normal" line-spacing="21" fill-opacity="0.75" fill="#000000">
                    <tspan x="71" y="109.68228">项目 app</tspan>
                </text>
                <text id="业务组件-业务组件-业务组件" font-family="PingFangSC-Regular, PingFang SC" font-size="12" font-weight="normal" line-spacing="21" fill-opacity="0.65" fill="#000000">
                    <tspan x="72" y="156">业务组件</tspan>
                    <tspan x="72" y="177">业务组件</tspan>
                    <tspan x="72" y="198">业务组件</tspan>
                </text>
            </g>
            <g id="业务系统">
                <use id="Rectangle-1-Copy-13" stroke="#A7E1C4" mask="url(#mask-12)" stroke-width="2" fill="#EBF8F2" xlink:href="#path-11"></use>
                <text font-family="PingFangSC-Regular, PingFang SC" font-size="14" font-weight="normal" line-spacing="21" fill-opacity="0.75" fill="#000000">
                    <tspan x="71" y="55">业务系统</tspan>
                </text>
            </g>
            <path d="M198.5,320.5 L375.5,320.5" id="Line" stroke="#979797" stroke-linecap="square" stroke-dasharray="1,1,2"></path>
            <path id="Line-decoration-1" d="M364.7,323.5 L375.5,320.5 L364.7,317.5" stroke="#979797" stroke-linecap="square" stroke-dasharray="1,1,2"></path>
            <path d="M197.5,462.5 L322.5,462.5" id="Line" stroke="#979797" stroke-linecap="square" stroke-dasharray="1,1,2"></path>
            <path id="Line-decoration-1" d="M311.7,465.5 L322.5,462.5 L311.7,459.5" stroke="#979797" stroke-linecap="square" stroke-dasharray="1,1,2"></path>
            <path d="M374.5,250.5 L197.5,250.5" id="Line" stroke="#979797" stroke-linecap="square" stroke-dasharray="1,1,2"></path>
            <path id="Line-decoration-1" d="M208.3,247.5 L197.5,250.5 L208.3,253.5" stroke="#979797" stroke-linecap="square" stroke-dasharray="1,1,2"></path>
            <path d="M197.5,198.5 L375.5,198.5" id="Line" stroke="#979797" stroke-linecap="square" stroke-dasharray="1,1,2"></path>
            <path id="Line-decoration-1" d="M364.7,201.5 L375.5,198.5 L364.7,195.5" stroke="#979797" stroke-linecap="square" stroke-dasharray="1,1,2"></path>
            <path d="M437.5,369.5 L437.5,412.5" id="Line" stroke="#979797" stroke-linecap="square" stroke-dasharray="1,1,1"></path>
            <path id="Line-decoration-1" d="M434.5,401.7 L437.5,412.5 L440.5,401.7" stroke="#979797" stroke-linecap="square" stroke-dasharray="1,1,1"></path>
            <text id="使用" font-family="PingFangSC-Regular, PingFang SC" font-size="14" font-weight="normal" line-spacing="21" fill-opacity="0.75" fill="#000000">
                <tspan x="221" y="108">使用</tspan>
            </text>
            <text id="贡献" font-family="PingFangSC-Regular, PingFang SC" font-size="14" font-weight="normal" line-spacing="21" fill-opacity="0.75" fill="#000000">
                <tspan x="246" y="191">贡献</tspan>
            </text>
            <text id="基线" font-family="PingFangSC-Regular, PingFang SC" font-size="14" font-weight="normal" line-spacing="21" fill-opacity="0.75" fill="#000000">
                <tspan x="246" y="244">基线</tspan>
            </text>
            <text id="参考" font-family="PingFangSC-Regular, PingFang SC" font-size="14" font-weight="normal" line-spacing="21" fill-opacity="0.75" fill="#000000">
                <tspan x="246" y="313">参考</tspan>
            </text>
            <text id="参考" font-family="PingFangSC-Regular, PingFang SC" font-size="14" font-weight="normal" line-spacing="21" fill-opacity="0.75" fill="#000000">
                <tspan x="246" y="452">参考</tspan>
            </text>
            <text id="发布" font-family="PingFangSC-Regular, PingFang SC" font-size="14" font-weight="normal" line-spacing="21" fill-opacity="0.75" fill="#000000">
                <tspan x="452" y="120">发布</tspan>
            </text>
            <text id="发布" font-family="PingFangSC-Regular, PingFang SC" font-size="14" font-weight="normal" line-spacing="21" fill-opacity="0.75" fill="#000000">
                <tspan x="452" y="394">发布</tspan>
            </text>
        </g>
    </g>
</svg>