<?xml version="1.0" encoding="UTF-8" standalone="no"?>
<svg width="531px" height="536px" viewBox="0 0 531 536" version="1.1" xmlns="http://www.w3.org/2000/svg" xmlns:xlink="http://www.w3.org/1999/xlink">
    <!-- Generator: Sketch 41.2 (35397) - http://www.bohemiancoding.com/sketch -->
    <title>logo</title>
    <desc>Created with Sketch.</desc>
    <defs>
        <linearGradient x1="100%" y1="55.6700468%" x2="0%" y2="53.9945885%" id="linearGradient-1">
            <stop stop-color="#47B4E0" offset="0%"></stop>
            <stop stop-color="#1588E0" offset="0.609394634%"></stop>
            <stop stop-color="#6EB4E0" offset="100%"></stop>
        </linearGradient>
    </defs>
    <g id="Page-1" stroke="none" stroke-width="1" fill="none" fill-rule="evenodd">
        <g id="logo">
            <ellipse id="Oval" fill="url(#linearGradient-1)" cx="265.5" cy="268" rx="265.5" ry="268"></ellipse>
            <path d="M268.514451,326.810214 L268.514451,360.040865 L320.022414,360.040865 C324.441083,360.040865 328.023121,363.630334 328.023121,368.037942 L328.023121,399.029366 C328.023121,403.446029 324.450362,407.026442 320.022414,407.026442 L268.514451,407.026442 L268.514451,429.005956 C268.514451,433.420945 264.928738,437 260.512437,437 L229.580049,437 C225.160658,437 221.578035,433.424213 221.578035,429.005956 L221.578035,255.431544 C221.578035,251.016555 225.163748,247.4375 229.580049,247.4375 L260.512437,247.4375 C264.931827,247.4375 268.514451,251.013287 268.514451,255.431544 L268.514451,279.801219 C319.73221,278.573334 360.710983,249.320421 360.710983,213.413462 C360.710983,176.726354 317.932179,146.985577 265.16185,146.985577 C212.391521,146.985577 169.612717,176.726354 169.612717,213.413462 C169.612717,225.034416 173.90497,235.958404 181.447421,245.460965 L181.063867,245.728591 C183.879553,249.516999 185.537572,254.163302 185.537572,259.183894 C185.537572,271.934901 174.842871,282.271635 161.650289,282.271635 C153.168445,282.271635 145.719107,277.998916 141.480621,271.558912 C128.474876,254.556318 121,234.667659 121,213.413462 C121,150.776936 185.918711,100 266,100 C346.081289,100 411,150.776936 411,213.413462 C411,275.393098 347.435794,325.760592 268.514451,326.810214 Z" id="Combined-Shape" fill="#FFFFFF"></path>
        </g>
    </g>
</svg>